<svg xmlns="http://www.w3.org/2000/svg" version="1.1" xmlns:xlink="http://www.w3.org/1999/xlink" xmlns:svgjs="http://svgjs.dev/svgjs" width="55" height="55" viewBox="0 0 1500 1500"><rect width="55" height="55" fill="#000000"></rect><g transform="matrix(0.6666666666666666,0,0,0.6666666666666666,249.39393939393938,438.5856950067477)"><svg viewBox="0 0 396 247" data-background-color="#000000" preserveAspectRatio="xMidYMid meet" height="935" width="1500" xmlns="http://www.w3.org/2000/svg" xmlns:xlink="http://www.w3.org/1999/xlink"><g id="tight-bounds" transform="matrix(1,0,0,1,0.2400000000000091,-0.09999999999999432)"><svg viewBox="0 0 395.52 247.2" height="247.2" width="395.52"><rect width="395.52" height="247.2" fill="url(#90ff3bf0-ffd8-47e9-9131-8ec53239fb3c)" mask="url(#beb316f0-9929-46ce-a602-d53eba9a2ca1)" data-fill-palette-color="tertiary"></rect><g><svg></svg></g><g><svg viewBox="0 0 395.52 247.2" height="247.2" width="395.52"><mask id="684aeb9f-56dd-430a-978a-41b3403ece50"><rect width="395.52" height="247.2" fill="white"></rect><g transform="matrix(1,0,0,1,0,89.09954770622443)" id="clone"><svg viewBox="0 0 395.52 69.00090458755115" height="69.00090458755115" width="395.52"><g><svg viewBox="0 0 395.52 69.00090458755115" height="69.00090458755115" width="395.52"><g><svg viewBox="0 0 395.52 69.00090458755115" height="69.00090458755115" width="395.52"><g><svg viewBox="0 0 395.52 69.00090458755115" height="69.00090458755115" width="395.52"><g id="SvgjsG1272"><svg viewBox="0 0 395.52 69.00090458755115" height="69.00090458755115" width="395.52" id="SvgjsSvg1271"><g><svg viewBox="0 0 395.52 69.00090458755115" height="69.00090458755115" width="395.52"><g transform="matrix(1,0,0,1,0,0)"><svg width="395.52" viewBox="-2.15 -38 233.13 41.5" height="69.00090458755115" data-palette-color="url(#6f9de062-2887-414b-be43-2e83111382c1)"><path d="M37.15-33.5L5.85-33.5 5.85-35 39.3-35 26.55 0.05 20.05-17.75 13.6 0.05 0.85-35 2.45-35 13.6-4.35 20.05-22.15 26.55-4.35 37.15-33.5ZM63.05-19.8L63.05-18.3 48.2-18.3 63.5-33.5 46.6-33.5 46.6-1.5 66-1.5 66 0 45.1 0 45.1-35 67.15-35 51.85-19.8 63.05-19.8ZM81.9 0L81.9 0 73.9 0 73.9-35 80-35Q86.6-35 89.95-32.58 93.3-30.15 93.3-25.75L93.3-25.75Q93.3-20.75 89.1-18.4L89.1-18.4Q95.2-16.1 95.2-9.75L95.2-9.75Q95.2-5.25 91.9-2.63 88.6 0 81.9 0ZM75.4-1.5L81.9-1.5Q84.25-1.5 86.2-1.88 88.15-2.25 89.92-3.13 91.7-4 92.7-5.7 93.7-7.4 93.7-9.75L93.7-9.75Q93.7-15.1 88.55-17L88.55-17 85.55-18.1 88.35-19.7Q91.8-21.6 91.8-25.75L91.8-25.75Q91.8-33.5 80-33.5L80-33.5 75.4-33.5 75.4-1.5ZM106.54-33.5L106.54-35 125.69-35 125.69-15.05Q125.69-7.05 122.94-3.28 120.19 0.5 114.04 0.5 107.89 0.5 105.14-3.28 102.39-7.05 102.39-15.05L102.39-15.05 102.39-35 103.89-35 103.89-15.05Q103.89-10.9 104.59-8.08 105.29-5.25 106.69-3.75 108.09-2.25 109.84-1.63 111.59-1 114.04-1 116.49-1 118.24-1.63 119.99-2.25 121.39-3.75 122.79-5.25 123.49-8.08 124.19-10.9 124.19-15.05L124.19-15.05 124.19-33.5 106.54-33.5ZM136.64-35L136.64 0 135.14 0 135.14-35 136.64-35ZM150.44 0L150.44-1.5 165.94-1.5 148.04-32.45 148.04 0 146.54 0 146.54-35 148.29-35 166.99-2.65 166.99-35 168.49-35 168.49 0 150.44 0ZM196.34-19.8L196.34-18.3 181.49-18.3 196.79-33.5 179.89-33.5 179.89-1.5 199.29-1.5 199.29 0 178.39 0 178.39-35 200.44-35 185.14-19.8 196.34-19.8ZM202.98-35L227.98-35 227.98-33.5 216.23-33.5 216.23 0 214.73 0 214.73-33.5 202.98-33.5 202.98-35Z" opacity="1" transform="matrix(1,0,0,1,0,0)" fill="black" class="wordmark-text-0" id="SvgjsPath1270" stroke-width="5" stroke="black" stroke-linejoin="round"></path></svg></g></svg></g></svg></g></svg></g></svg></g></svg></g></svg></g></mask><g mask="url(#684aeb9f-56dd-430a-978a-41b3403ece50)"><g><path d="M318.186 10.579h-220.752v-10.579h235.916l-89.923 247.2-45.843-125.54-45.491 125.54-89.923-247.2h11.285l78.638 216.168 45.491-125.54 45.843 125.54z" fill="url(#90ff3bf0-ffd8-47e9-9131-8ec53239fb3c)" fill-rule="nonzero" stroke="none" stroke-width="1" stroke-linecap="butt" stroke-linejoin="miter" stroke-miterlimit="10" stroke-dasharray="" stroke-dashoffset="0" font-family="none" font-weight="none" font-size="none" text-anchor="none" style="mix-blend-mode: normal" data-fill-palette-color="tertiary"></path></g></g><g transform="matrix(1,0,0,1,0,89.09954770622443)"><svg viewBox="0 0 395.52 69.00090458755115" height="69.00090458755115" width="395.52"><g><svg viewBox="0 0 395.52 69.00090458755115" height="69.00090458755115" width="395.52"><g><svg viewBox="0 0 395.52 69.00090458755115" height="69.00090458755115" width="395.52"><g><svg viewBox="0 0 395.52 69.00090458755115" height="69.00090458755115" width="395.52"><g id="textblocktransform"><svg viewBox="0 0 395.52 69.00090458755115" height="69.00090458755115" width="395.52" id="textblock"><g><svg viewBox="0 0 395.52 69.00090458755115" height="69.00090458755115" width="395.52"><g transform="matrix(1,0,0,1,0,0)"><svg width="395.52" viewBox="-2.15 -38 233.13 41.5" height="69.00090458755115" data-palette-color="url(#6f9de062-2887-414b-be43-2e83111382c1)"></svg></g></svg></g></svg></g></svg></g></svg></g></svg></g></svg></g></svg></g><defs></defs><mask id="c609411e-7183-4421-a21a-a2222ef2dce5"><g id="SvgjsG1282"><svg viewBox="0 0 395.52 247.2" height="247.2" width="395.52"><g><svg></svg></g><g><svg viewBox="0 0 395.52 247.2" height="247.2" width="395.52"><mask id="SvgjsMask1281"><rect width="395.52" height="247.2" fill="black"></rect><g transform="matrix(1,0,0,1,0,89.09954770622443)" id="SvgjsG1280"><svg viewBox="0 0 395.52 69.00090458755115" height="69.00090458755115" width="395.52"><g><svg viewBox="0 0 395.52 69.00090458755115" height="69.00090458755115" width="395.52"><g><svg viewBox="0 0 395.52 69.00090458755115" height="69.00090458755115" width="395.52"><g><svg viewBox="0 0 395.52 69.00090458755115" height="69.00090458755115" width="395.52"><g id="SvgjsG1279"><svg viewBox="0 0 395.52 69.00090458755115" height="69.00090458755115" width="395.52" id="SvgjsSvg1278"><g><svg viewBox="0 0 395.52 69.00090458755115" height="69.00090458755115" width="395.52"><g transform="matrix(1,0,0,1,0,0)"><svg width="395.52" viewBox="-2.15 -38 233.13 41.5" height="69.00090458755115" data-palette-color="url(#6f9de062-2887-414b-be43-2e83111382c1)"><path d="M37.15-33.5L5.85-33.5 5.85-35 39.3-35 26.55 0.05 20.05-17.75 13.6 0.05 0.85-35 2.45-35 13.6-4.35 20.05-22.15 26.55-4.35 37.15-33.5ZM63.05-19.8L63.05-18.3 48.2-18.3 63.5-33.5 46.6-33.5 46.6-1.5 66-1.5 66 0 45.1 0 45.1-35 67.15-35 51.85-19.8 63.05-19.8ZM81.9 0L81.9 0 73.9 0 73.9-35 80-35Q86.6-35 89.95-32.58 93.3-30.15 93.3-25.75L93.3-25.75Q93.3-20.75 89.1-18.4L89.1-18.4Q95.2-16.1 95.2-9.75L95.2-9.75Q95.2-5.25 91.9-2.63 88.6 0 81.9 0ZM75.4-1.5L81.9-1.5Q84.25-1.5 86.2-1.88 88.15-2.25 89.92-3.13 91.7-4 92.7-5.7 93.7-7.4 93.7-9.75L93.7-9.75Q93.7-15.1 88.55-17L88.55-17 85.55-18.1 88.35-19.7Q91.8-21.6 91.8-25.75L91.8-25.75Q91.8-33.5 80-33.5L80-33.5 75.4-33.5 75.4-1.5ZM106.54-33.5L106.54-35 125.69-35 125.69-15.05Q125.69-7.05 122.94-3.28 120.19 0.5 114.04 0.5 107.89 0.5 105.14-3.28 102.39-7.05 102.39-15.05L102.39-15.05 102.39-35 103.89-35 103.89-15.05Q103.89-10.9 104.59-8.08 105.29-5.25 106.69-3.75 108.09-2.25 109.84-1.63 111.59-1 114.04-1 116.49-1 118.24-1.63 119.99-2.25 121.39-3.75 122.79-5.25 123.49-8.08 124.19-10.9 124.19-15.05L124.19-15.05 124.19-33.5 106.54-33.5ZM136.64-35L136.64 0 135.14 0 135.14-35 136.64-35ZM150.44 0L150.44-1.5 165.94-1.5 148.04-32.45 148.04 0 146.54 0 146.54-35 148.29-35 166.99-2.65 166.99-35 168.49-35 168.49 0 150.44 0ZM196.34-19.8L196.34-18.3 181.49-18.3 196.79-33.5 179.89-33.5 179.89-1.5 199.29-1.5 199.29 0 178.39 0 178.39-35 200.44-35 185.14-19.8 196.34-19.8ZM202.98-35L227.98-35 227.98-33.5 216.23-33.5 216.23 0 214.73 0 214.73-33.5 202.98-33.5 202.98-35Z" opacity="1" transform="matrix(1,0,0,1,0,0)" fill="black" class="wordmark-text-0" id="SvgjsPath1277" stroke-width="5" stroke="black" stroke-linejoin="round"></path></svg></g></svg></g></svg></g></svg></g></svg></g></svg></g></svg></g></mask><g mask="url(#684aeb9f-56dd-430a-978a-41b3403ece50)"><g><path d="M318.186 10.579h-220.752v-10.579h235.916l-89.923 247.2-45.843-125.54-45.491 125.54-89.923-247.2h11.285l78.638 216.168 45.491-125.54 45.843 125.54z" fill="black" fill-rule="nonzero" stroke="none" stroke-width="1" stroke-linecap="butt" stroke-linejoin="miter" stroke-miterlimit="10" stroke-dasharray="" stroke-dashoffset="0" font-family="none" font-weight="none" font-size="none" text-anchor="none" style="mix-blend-mode: normal"></path></g></g><g transform="matrix(1,0,0,1,0,89.09954770622443)"><svg viewBox="0 0 395.52 69.00090458755115" height="69.00090458755115" width="395.52"><g><svg viewBox="0 0 395.52 69.00090458755115" height="69.00090458755115" width="395.52"><g><svg viewBox="0 0 395.52 69.00090458755115" height="69.00090458755115" width="395.52"><g><svg viewBox="0 0 395.52 69.00090458755115" height="69.00090458755115" width="395.52"><g id="SvgjsG1276"><svg viewBox="0 0 395.52 69.00090458755115" height="69.00090458755115" width="395.52" id="SvgjsSvg1275"><g><svg viewBox="0 0 395.52 69.00090458755115" height="69.00090458755115" width="395.52"><g transform="matrix(1,0,0,1,0,0)"><svg width="395.52" viewBox="-2.15 -38 233.13 41.5" height="69.00090458755115" data-palette-color="url(#6f9de062-2887-414b-be43-2e83111382c1)"><path d="M37.15-33.5L5.85-33.5 5.85-35 39.3-35 26.55 0.05 20.05-17.75 13.6 0.05 0.85-35 2.45-35 13.6-4.35 20.05-22.15 26.55-4.35 37.15-33.5ZM63.05-19.8L63.05-18.3 48.2-18.3 63.5-33.5 46.6-33.5 46.6-1.5 66-1.5 66 0 45.1 0 45.1-35 67.15-35 51.85-19.8 63.05-19.8ZM81.9 0L81.9 0 73.9 0 73.9-35 80-35Q86.6-35 89.95-32.58 93.3-30.15 93.3-25.75L93.3-25.75Q93.3-20.75 89.1-18.4L89.1-18.4Q95.2-16.1 95.2-9.75L95.2-9.75Q95.2-5.25 91.9-2.63 88.6 0 81.9 0ZM75.4-1.5L81.9-1.5Q84.25-1.5 86.2-1.88 88.15-2.25 89.92-3.13 91.7-4 92.7-5.7 93.7-7.4 93.7-9.75L93.7-9.75Q93.7-15.1 88.55-17L88.55-17 85.55-18.1 88.35-19.7Q91.8-21.6 91.8-25.75L91.8-25.75Q91.8-33.5 80-33.5L80-33.5 75.4-33.5 75.4-1.5ZM106.54-33.5L106.54-35 125.69-35 125.69-15.05Q125.69-7.05 122.94-3.28 120.19 0.5 114.04 0.5 107.89 0.5 105.14-3.28 102.39-7.05 102.39-15.05L102.39-15.05 102.39-35 103.89-35 103.89-15.05Q103.89-10.9 104.59-8.08 105.29-5.25 106.69-3.75 108.09-2.25 109.84-1.63 111.59-1 114.04-1 116.49-1 118.24-1.63 119.99-2.25 121.39-3.75 122.79-5.25 123.49-8.08 124.19-10.9 124.19-15.05L124.19-15.05 124.19-33.5 106.54-33.5ZM136.64-35L136.64 0 135.14 0 135.14-35 136.64-35ZM150.44 0L150.44-1.5 165.94-1.5 148.04-32.45 148.04 0 146.54 0 146.54-35 148.29-35 166.99-2.65 166.99-35 168.49-35 168.49 0 150.44 0ZM196.34-19.8L196.34-18.3 181.49-18.3 196.79-33.5 179.89-33.5 179.89-1.5 199.29-1.5 199.29 0 178.39 0 178.39-35 200.44-35 185.14-19.8 196.34-19.8ZM202.98-35L227.98-35 227.98-33.5 216.23-33.5 216.23 0 214.73 0 214.73-33.5 202.98-33.5 202.98-35Z" opacity="1" transform="matrix(1,0,0,1,0,0)" fill="white" class="wordmark-text-0" id="SvgjsPath1274"></path></svg></g></svg></g></svg></g></svg></g></svg></g></svg></g></svg></g></svg></g><defs><mask></mask></defs></svg><rect width="395.52" height="247.2" fill="black" stroke="none" visibility="hidden"></rect></g></mask><linearGradient x1="0.054" x2="0.941" y1="0.5" y2="0.5" id="6f9de062-2887-414b-be43-2e83111382c1"><stop stop-color="#864d25" offset="0"></stop><stop stop-color="#f1c4b3" offset="0.498"></stop><stop stop-color="#864d25" offset="1"></stop></linearGradient><rect width="395.52" height="247.2" fill="url(#6f9de062-2887-414b-be43-2e83111382c1)" mask="url(#c609411e-7183-4421-a21a-a2222ef2dce5)" data-fill-palette-color="primary"></rect><mask id="beb316f0-9929-46ce-a602-d53eba9a2ca1"><g id="SvgjsG1335"><svg viewBox="0 0 395.52 247.2" height="247.2" width="395.52"><g><svg></svg></g><g><svg viewBox="0 0 395.52 247.2" height="247.2" width="395.52"><mask id="SvgjsMask1334"><rect width="395.52" height="247.2" fill="black"></rect><g transform="matrix(1,0,0,1,0,89.09954770622443)" id="SvgjsG1333"><svg viewBox="0 0 395.52 69.00090458755115" height="69.00090458755115" width="395.52"><g><svg viewBox="0 0 395.52 69.00090458755115" height="69.00090458755115" width="395.52"><g><svg viewBox="0 0 395.52 69.00090458755115" height="69.00090458755115" width="395.52"><g><svg viewBox="0 0 395.52 69.00090458755115" height="69.00090458755115" width="395.52"><g id="SvgjsG1332"><svg viewBox="0 0 395.52 69.00090458755115" height="69.00090458755115" width="395.52" id="SvgjsSvg1331"><g><svg viewBox="0 0 395.52 69.00090458755115" height="69.00090458755115" width="395.52"><g transform="matrix(1,0,0,1,0,0)"><svg width="395.52" viewBox="-2.15 -38 233.13 41.5" height="69.00090458755115" data-palette-color="url(#6f9de062-2887-414b-be43-2e83111382c1)"><path d="M37.15-33.5L5.85-33.5 5.85-35 39.3-35 26.55 0.05 20.05-17.75 13.6 0.05 0.85-35 2.45-35 13.6-4.35 20.05-22.15 26.55-4.35 37.15-33.5ZM63.05-19.8L63.05-18.3 48.2-18.3 63.5-33.5 46.6-33.5 46.6-1.5 66-1.5 66 0 45.1 0 45.1-35 67.15-35 51.85-19.8 63.05-19.8ZM81.9 0L81.9 0 73.9 0 73.9-35 80-35Q86.6-35 89.95-32.58 93.3-30.15 93.3-25.75L93.3-25.75Q93.3-20.75 89.1-18.4L89.1-18.4Q95.2-16.1 95.2-9.75L95.2-9.75Q95.2-5.25 91.9-2.63 88.6 0 81.9 0ZM75.4-1.5L81.9-1.5Q84.25-1.5 86.2-1.88 88.15-2.25 89.92-3.13 91.7-4 92.7-5.7 93.7-7.4 93.7-9.75L93.7-9.75Q93.7-15.1 88.55-17L88.55-17 85.55-18.1 88.35-19.7Q91.8-21.6 91.8-25.75L91.8-25.75Q91.8-33.5 80-33.5L80-33.5 75.4-33.5 75.4-1.5ZM106.54-33.5L106.54-35 125.69-35 125.69-15.05Q125.69-7.05 122.94-3.28 120.19 0.5 114.04 0.5 107.89 0.5 105.14-3.28 102.39-7.05 102.39-15.05L102.39-15.05 102.39-35 103.89-35 103.89-15.05Q103.89-10.9 104.59-8.08 105.29-5.25 106.69-3.75 108.09-2.25 109.84-1.63 111.59-1 114.04-1 116.49-1 118.24-1.63 119.99-2.25 121.39-3.75 122.79-5.25 123.49-8.08 124.19-10.9 124.19-15.05L124.19-15.05 124.19-33.5 106.54-33.5ZM136.64-35L136.64 0 135.14 0 135.14-35 136.64-35ZM150.44 0L150.44-1.5 165.94-1.5 148.04-32.45 148.04 0 146.54 0 146.54-35 148.29-35 166.99-2.65 166.99-35 168.49-35 168.49 0 150.44 0ZM196.34-19.8L196.34-18.3 181.49-18.3 196.79-33.5 179.89-33.5 179.89-1.5 199.29-1.5 199.29 0 178.39 0 178.39-35 200.44-35 185.14-19.8 196.34-19.8ZM202.98-35L227.98-35 227.98-33.5 216.23-33.5 216.23 0 214.73 0 214.73-33.5 202.98-33.5 202.98-35Z" opacity="1" transform="matrix(1,0,0,1,0,0)" fill="black" class="wordmark-text-0" id="SvgjsPath1330" stroke-width="5" stroke="black" stroke-linejoin="round"></path></svg></g></svg></g></svg></g></svg></g></svg></g></svg></g></svg></g></mask><g mask="url(#684aeb9f-56dd-430a-978a-41b3403ece50)"><g><path d="M318.186 10.579h-220.752v-10.579h235.916l-89.923 247.2-45.843-125.54-45.491 125.54-89.923-247.2h11.285l78.638 216.168 45.491-125.54 45.843 125.54z" fill="white" fill-rule="nonzero" stroke="none" stroke-width="1" stroke-linecap="butt" stroke-linejoin="miter" stroke-miterlimit="10" stroke-dasharray="" stroke-dashoffset="0" font-family="none" font-weight="none" font-size="none" text-anchor="none" style="mix-blend-mode: normal"></path></g></g><g transform="matrix(1,0,0,1,0,89.09954770622443)"><svg viewBox="0 0 395.52 69.00090458755115" height="69.00090458755115" width="395.52"><g><svg viewBox="0 0 395.52 69.00090458755115" height="69.00090458755115" width="395.52"><g><svg viewBox="0 0 395.52 69.00090458755115" height="69.00090458755115" width="395.52"><g><svg viewBox="0 0 395.52 69.00090458755115" height="69.00090458755115" width="395.52"><g id="SvgjsG1329"><svg viewBox="0 0 395.52 69.00090458755115" height="69.00090458755115" width="395.52" id="SvgjsSvg1328"><g><svg viewBox="0 0 395.52 69.00090458755115" height="69.00090458755115" width="395.52"><g transform="matrix(1,0,0,1,0,0)"><svg width="395.52" viewBox="-2.15 -38 233.13 41.5" height="69.00090458755115" data-palette-color="url(#6f9de062-2887-414b-be43-2e83111382c1)"></svg></g></svg></g></svg></g></svg></g></svg></g></svg></g></svg></g></svg></g><defs><mask></mask></defs><mask><g id="SvgjsG1327"><svg viewBox="0 0 395.52 247.2" height="247.2" width="395.52"><g><svg></svg></g><g><svg viewBox="0 0 395.52 247.2" height="247.2" width="395.52"><mask id="SvgjsMask1326"><rect width="395.52" height="247.2" fill="black"></rect><g transform="matrix(1,0,0,1,0,89.09954770622443)" id="SvgjsG1325"><svg viewBox="0 0 395.52 69.00090458755115" height="69.00090458755115" width="395.52"><g><svg viewBox="0 0 395.52 69.00090458755115" height="69.00090458755115" width="395.52"><g><svg viewBox="0 0 395.52 69.00090458755115" height="69.00090458755115" width="395.52"><g><svg viewBox="0 0 395.52 69.00090458755115" height="69.00090458755115" width="395.52"><g id="SvgjsG1324"><svg viewBox="0 0 395.52 69.00090458755115" height="69.00090458755115" width="395.52" id="SvgjsSvg1323"><g><svg viewBox="0 0 395.52 69.00090458755115" height="69.00090458755115" width="395.52"><g transform="matrix(1,0,0,1,0,0)"><svg width="395.52" viewBox="-2.15 -38 233.13 41.5" height="69.00090458755115" data-palette-color="url(#6f9de062-2887-414b-be43-2e83111382c1)"><path d="M37.15-33.5L5.85-33.5 5.85-35 39.3-35 26.55 0.05 20.05-17.75 13.6 0.05 0.85-35 2.45-35 13.6-4.35 20.05-22.15 26.55-4.35 37.15-33.5ZM63.05-19.8L63.05-18.3 48.2-18.3 63.5-33.5 46.6-33.5 46.6-1.5 66-1.5 66 0 45.1 0 45.1-35 67.15-35 51.85-19.8 63.05-19.8ZM81.9 0L81.9 0 73.9 0 73.9-35 80-35Q86.6-35 89.95-32.58 93.3-30.15 93.3-25.75L93.3-25.75Q93.3-20.75 89.1-18.4L89.1-18.4Q95.2-16.1 95.2-9.75L95.2-9.75Q95.2-5.25 91.9-2.63 88.6 0 81.9 0ZM75.4-1.5L81.9-1.5Q84.25-1.5 86.2-1.88 88.15-2.25 89.92-3.13 91.7-4 92.7-5.7 93.7-7.4 93.7-9.75L93.7-9.75Q93.7-15.1 88.55-17L88.55-17 85.55-18.1 88.35-19.7Q91.8-21.6 91.8-25.75L91.8-25.75Q91.8-33.5 80-33.5L80-33.5 75.4-33.5 75.4-1.5ZM106.54-33.5L106.54-35 125.69-35 125.69-15.05Q125.69-7.05 122.94-3.28 120.19 0.5 114.04 0.5 107.89 0.5 105.14-3.28 102.39-7.05 102.39-15.05L102.39-15.05 102.39-35 103.89-35 103.89-15.05Q103.89-10.9 104.59-8.08 105.29-5.25 106.69-3.75 108.09-2.25 109.84-1.63 111.59-1 114.04-1 116.49-1 118.24-1.63 119.99-2.25 121.39-3.75 122.79-5.25 123.49-8.08 124.19-10.9 124.19-15.05L124.19-15.05 124.19-33.5 106.54-33.5ZM136.64-35L136.64 0 135.14 0 135.14-35 136.64-35ZM150.44 0L150.44-1.5 165.94-1.5 148.04-32.45 148.04 0 146.54 0 146.54-35 148.29-35 166.99-2.65 166.99-35 168.49-35 168.49 0 150.44 0ZM196.34-19.8L196.34-18.3 181.49-18.3 196.79-33.5 179.89-33.5 179.89-1.5 199.29-1.5 199.29 0 178.39 0 178.39-35 200.44-35 185.14-19.8 196.34-19.8ZM202.98-35L227.98-35 227.98-33.5 216.23-33.5 216.23 0 214.73 0 214.73-33.5 202.98-33.5 202.98-35Z" opacity="1" transform="matrix(1,0,0,1,0,0)" fill="black" class="wordmark-text-0" id="SvgjsPath1322" stroke-width="5" stroke="black" stroke-linejoin="round"></path></svg></g></svg></g></svg></g></svg></g></svg></g></svg></g></svg></g></mask><g mask="url(#684aeb9f-56dd-430a-978a-41b3403ece50)"><g><path d="M318.186 10.579h-220.752v-10.579h235.916l-89.923 247.2-45.843-125.54-45.491 125.54-89.923-247.2h11.285l78.638 216.168 45.491-125.54 45.843 125.54z" fill="black" fill-rule="nonzero" stroke="none" stroke-width="1" stroke-linecap="butt" stroke-linejoin="miter" stroke-miterlimit="10" stroke-dasharray="" stroke-dashoffset="0" font-family="none" font-weight="none" font-size="none" text-anchor="none" style="mix-blend-mode: normal"></path></g></g><g transform="matrix(1,0,0,1,0,89.09954770622443)"><svg viewBox="0 0 395.52 69.00090458755115" height="69.00090458755115" width="395.52"><g><svg viewBox="0 0 395.52 69.00090458755115" height="69.00090458755115" width="395.52"><g><svg viewBox="0 0 395.52 69.00090458755115" height="69.00090458755115" width="395.52"><g><svg viewBox="0 0 395.52 69.00090458755115" height="69.00090458755115" width="395.52"><g id="SvgjsG1321"><svg viewBox="0 0 395.52 69.00090458755115" height="69.00090458755115" width="395.52" id="SvgjsSvg1320"><g><svg viewBox="0 0 395.52 69.00090458755115" height="69.00090458755115" width="395.52"><g transform="matrix(1,0,0,1,0,0)"><svg width="395.52" viewBox="-2.15 -38 233.13 41.5" height="69.00090458755115" data-palette-color="url(#6f9de062-2887-414b-be43-2e83111382c1)"><path d="M37.15-33.5L5.85-33.5 5.85-35 39.3-35 26.55 0.05 20.05-17.75 13.6 0.05 0.85-35 2.45-35 13.6-4.35 20.05-22.15 26.55-4.35 37.15-33.5ZM63.05-19.8L63.05-18.3 48.2-18.3 63.5-33.5 46.6-33.5 46.6-1.5 66-1.5 66 0 45.1 0 45.1-35 67.15-35 51.85-19.8 63.05-19.8ZM81.9 0L81.9 0 73.9 0 73.9-35 80-35Q86.6-35 89.95-32.58 93.3-30.15 93.3-25.75L93.3-25.75Q93.3-20.75 89.1-18.4L89.1-18.4Q95.2-16.1 95.2-9.75L95.2-9.75Q95.2-5.25 91.9-2.63 88.6 0 81.9 0ZM75.4-1.5L81.9-1.5Q84.25-1.5 86.2-1.88 88.15-2.25 89.92-3.13 91.7-4 92.7-5.7 93.7-7.4 93.7-9.75L93.7-9.75Q93.7-15.1 88.55-17L88.55-17 85.55-18.1 88.35-19.7Q91.8-21.6 91.8-25.75L91.8-25.75Q91.8-33.5 80-33.5L80-33.5 75.4-33.5 75.4-1.5ZM106.54-33.5L106.54-35 125.69-35 125.69-15.05Q125.69-7.05 122.94-3.28 120.19 0.5 114.04 0.5 107.89 0.5 105.14-3.28 102.39-7.05 102.39-15.05L102.39-15.05 102.39-35 103.89-35 103.89-15.05Q103.89-10.9 104.59-8.08 105.29-5.25 106.69-3.75 108.09-2.25 109.84-1.63 111.59-1 114.04-1 116.49-1 118.24-1.63 119.99-2.25 121.39-3.75 122.79-5.25 123.49-8.08 124.19-10.9 124.19-15.05L124.19-15.05 124.19-33.5 106.54-33.5ZM136.64-35L136.64 0 135.14 0 135.14-35 136.64-35ZM150.44 0L150.44-1.5 165.94-1.5 148.04-32.45 148.04 0 146.54 0 146.54-35 148.29-35 166.99-2.65 166.99-35 168.49-35 168.49 0 150.44 0ZM196.34-19.8L196.34-18.3 181.49-18.3 196.79-33.5 179.89-33.5 179.89-1.5 199.29-1.5 199.29 0 178.39 0 178.39-35 200.44-35 185.14-19.8 196.34-19.8ZM202.98-35L227.98-35 227.98-33.5 216.23-33.5 216.23 0 214.73 0 214.73-33.5 202.98-33.5 202.98-35Z" opacity="1" transform="matrix(1,0,0,1,0,0)" fill="black" class="wordmark-text-0" id="SvgjsPath1319"></path></svg></g></svg></g></svg></g></svg></g></svg></g></svg></g></svg></g></svg></g><defs><mask></mask></defs></svg><rect width="395.52" height="247.2" fill="black" stroke="none" visibility="hidden"></rect></g></mask></svg><rect width="395.52" height="247.2" fill="black" stroke="none" visibility="hidden"></rect></g></mask><linearGradient x1="0.054" x2="0.941" y1="0.5" y2="0.5" id="90ff3bf0-ffd8-47e9-9131-8ec53239fb3c"><stop stop-color="#864d25" offset="0"></stop><stop stop-color="#f1c4b3" offset="0.498"></stop><stop stop-color="#864d25" offset="1"></stop></linearGradient></svg><rect width="395.52" height="247.2" fill="none" stroke="none" visibility="hidden"></rect></g></svg></g></svg>
